<?xml version='1.0' encoding='iso-8859-1'?>
<svg version="1.1" xmlns="http://www.w3.org/2000/svg" viewBox="0 0 137.144 137.144" xmlns:xlink="http://www.w3.org/1999/xlink" enable-background="new 0 0 137.144 137.144">
  <g>
    <g>
      <path d="m109.715,0h-82.286c-15.149,0-27.429,12.28-27.429,27.429v82.287c0,15.148 12.28,27.429 27.429,27.429h82.286c15.148,0 27.429-12.28 27.429-27.429v-82.287c0-15.149-12.28-27.429-27.429-27.429zm13.715,102.858c0,11.362-9.21,20.571-20.571,20.571h-68.573c-11.361,0-20.572-9.21-20.572-20.571v-68.572c0-11.361 9.21-20.572 20.572-20.572h68.572c11.361,0 20.571,9.21 20.571,20.572v68.572zm-35.582-39.475l-5.56-22.239c0,0-13.313,7.721-13.714,6.857-4.179-8.991-6.857-6.857-6.857-6.857s-3.956-0.46-6.857,6.857c-1.692,4.267-3.804,10.767-5.237,15.323-13.132,2.292-22.193,6.823-22.193,12.106 0,7.574 18.421,13.715 41.143,13.715 22.723,0 41.143-6.14 41.143-13.715 0.001-5.239-8.914-9.738-21.868-12.047zm-19.274,12.047c-29.59,0.248-18.857-12-18.857-12s4.566,4.932 18.857,5.143c14.507,0.214 19.072-5.143 19.072-5.143s8.874,11.766-19.072,12z"/>
    </g>
  </g>
</svg>
